<svg xmlns="http://www.w3.org/2000/svg" width="56" height="56" viewBox="0 0 56 56" fill="none">
  <circle cx="28" cy="28" r="27.1765" stroke="#1E96FC" stroke-width="1.64706"/>
  <path d="M17.2942 27.5883C16.612 27.5883 16.0589 28.1413 16.0589 28.8235C16.0589 29.5058 16.612 30.0588 17.2942 30.0588V27.5883ZM37.9324 29.697C38.4148 29.2146 38.4148 28.4325 37.9324 27.9501L30.071 20.0887C29.5886 19.6063 28.8065 19.6063 28.324 20.0887C27.8416 20.5711 27.8416 21.3533 28.324 21.8357L35.3119 28.8235L28.324 35.8114C27.8416 36.2938 27.8416 37.076 28.324 37.5584C28.8065 38.0408 29.5886 38.0408 30.071 37.5584L37.9324 29.697ZM17.2942 30.0588H37.0589V27.5883H17.2942V30.0588Z" fill="#1E96FC"/>
</svg>