<svg xmlns="http://www.w3.org/2000/svg" width="44" height="44" viewBox="0 0 44 44" fill="none">
  <path d="M43.1952 22.248C43.1952 10.5985 33.7334 1.16406 22.0839 1.16406C10.4344 1.16406 1 10.5985 1 22.248C1 32.7762 8.71162 41.4997 18.8024 43.0858V28.3462H13.4425V22.248H18.8024V17.5991C18.8024 12.3213 21.9472 9.39526 26.7601 9.39526C29.0572 9.39526 31.491 9.80545 31.491 9.80545V15.0012H28.8384C26.2132 15.0012 25.3928 16.6147 25.3928 18.2828V22.248H31.2449L30.3151 28.3462H25.3928V43.0858C35.4835 41.4997 43.1952 32.7762 43.1952 22.248Z" stroke="#F4F4ED" stroke-width="1.55873" stroke-miterlimit="10"/>
  <path d="M30.2877 28.3459L31.2175 22.2477H25.3654V18.2825C25.3654 16.6144 26.1858 15.001 28.811 15.001H31.4636V9.80521C31.4636 9.80521 29.0571 9.39502 26.7327 9.39502C21.9198 9.39502 18.775 12.3211 18.775 17.5989V22.2477H13.4151V28.3459H18.775V43.0855C19.8415 43.2496 20.9626 43.3316 22.0838 43.3316C23.205 43.3316 24.2989 43.2496 25.3927 43.0855V28.3459H30.315H30.2877Z" fill="#F4F4ED"/>
</svg>