<svg xmlns="http://www.w3.org/2000/svg" width="45" height="45" viewBox="0 0 45 45" fill="none">
  <path d="M22.6501 43.3319C34.2944 43.3319 43.734 33.8923 43.734 22.248C43.734 10.6036 34.2944 1.16406 22.6501 1.16406C11.0057 1.16406 1.56616 10.6036 1.56616 22.248C1.56616 33.8923 11.0057 43.3319 22.6501 43.3319Z" stroke="#F4F4ED" stroke-width="1.55873" stroke-miterlimit="10"/>
  <path d="M22.65 11.3645C26.205 11.3645 26.6152 11.3645 28.0098 11.4465C29.2951 11.5012 30.0061 11.72 30.471 11.9114C31.0999 12.1575 31.5375 12.431 32.0024 12.8959C32.4673 13.3607 32.7681 13.7983 32.9868 14.4272C33.1783 14.8921 33.397 15.6031 33.4517 16.8884C33.5064 18.2831 33.5338 18.7206 33.5338 22.2482C33.5338 25.7759 33.5338 26.2134 33.4517 27.6081C33.397 28.8934 33.1783 29.6044 32.9868 30.0693C32.7407 30.6982 32.4673 31.1358 32.0024 31.6006C31.5375 32.0655 31.0999 32.3663 30.471 32.5851C30.0061 32.7765 29.2951 32.9953 28.0098 33.05C26.6152 33.1047 26.1776 33.132 22.65 33.132C19.1223 33.132 18.6848 33.132 17.2901 33.05C16.0049 32.9953 15.2939 32.7765 14.829 32.5851C14.2 32.339 13.7625 32.0655 13.2976 31.6006C12.8327 31.1358 12.5319 30.6982 12.3131 30.0693C12.1217 29.6044 11.9029 28.8934 11.8482 27.6081C11.7936 26.2134 11.7662 25.7759 11.7662 22.2482C11.7662 18.7206 11.7662 18.2831 11.8482 16.8884C11.9029 15.6031 12.1217 14.8921 12.3131 14.4272C12.5592 13.7983 12.8327 13.3607 13.2976 12.8959C13.7625 12.431 14.2 12.1302 14.829 11.9114C15.2939 11.72 16.0049 11.5012 17.2901 11.4465C18.6848 11.3918 19.1223 11.3645 22.65 11.3645ZM22.65 8.95801C19.0403 8.95801 18.6027 8.95801 17.1807 9.04005C15.7587 9.09474 14.8016 9.34085 13.9539 9.66901C13.0788 9.99716 12.3405 10.462 11.6021 11.2004C10.8638 11.9387 10.3989 12.6771 10.0707 13.5522C9.74258 14.3999 9.52381 15.357 9.44178 16.779C9.38708 18.201 9.35974 18.6386 9.35974 22.2482C9.35974 25.8579 9.35974 26.2955 9.44178 27.7175C9.49647 29.1395 9.74258 30.0966 10.0707 30.9443C10.3989 31.8194 10.8638 32.5578 11.6021 33.2961C12.3405 34.0345 13.0788 34.4993 13.9539 34.8275C14.8016 35.1556 15.7587 35.3744 17.1807 35.4565C18.6027 35.5111 19.0403 35.5385 22.65 35.5385C26.2597 35.5385 26.6972 35.5385 28.1192 35.4565C29.5412 35.4018 30.4983 35.1556 31.3461 34.8275C32.2211 34.4993 32.9595 34.0345 33.6978 33.2961C34.4362 32.5578 34.9011 31.8194 35.2292 30.9443C35.5574 30.0966 35.7761 29.1395 35.8582 27.7175C35.9129 26.2955 35.9402 25.8579 35.9402 22.2482C35.9402 18.6386 35.9402 18.201 35.8582 16.779C35.8035 15.357 35.5574 14.3999 35.2292 13.5522C34.9011 12.6771 34.4362 11.9387 33.6978 11.2004C32.9595 10.462 32.2211 9.99716 31.3461 9.66901C30.4983 9.34085 29.5412 9.12208 28.1192 9.04005C26.6972 8.98535 26.2597 8.95801 22.65 8.95801Z" fill="#F4F4ED"/>
  <path d="M22.65 15.4395C18.8762 15.4395 15.8408 18.5022 15.8408 22.2487C15.8408 25.9951 18.9036 29.0578 22.65 29.0578C26.3964 29.0578 29.4592 25.9951 29.4592 22.2487C29.4592 18.5022 26.3964 15.4395 22.65 15.4395ZM22.65 26.6787C20.2162 26.6787 18.2199 24.7098 18.2199 22.2487C18.2199 19.7875 20.1889 17.8186 22.65 17.8186C25.1112 17.8186 27.0801 19.7875 27.0801 22.2487C27.0801 24.7098 25.1112 26.6787 22.65 26.6787Z" fill="#F4F4ED"/>
  <path d="M29.76 16.7513C30.636 16.7513 31.3461 16.0411 31.3461 15.1652C31.3461 14.2892 30.636 13.5791 29.76 13.5791C28.8841 13.5791 28.174 14.2892 28.174 15.1652C28.174 16.0411 28.8841 16.7513 29.76 16.7513Z" fill="#F4F4ED"/>
</svg>