<svg xmlns="http://www.w3.org/2000/svg" width="147" height="28" viewBox="0 0 147 28" fill="none">
  <path d="M14 0L17.1432 9.67376H27.3148L19.0858 15.6525L22.229 25.3262L14 19.3475L5.77101 25.3262L8.9142 15.6525L0.685208 9.67376H10.8568L14 0Z" fill="#EAD40C"/>
  <path d="M44 0L47.1432 9.67376H57.3148L49.0858 15.6525L52.229 25.3262L44 19.3475L35.771 25.3262L38.9142 15.6525L30.6852 9.67376H40.8568L44 0Z" fill="#EAD40C"/>
  <path d="M73.5 0L76.5309 9.67376H86.3393L78.4042 15.6525L81.4351 25.3262L73.5 19.3475L65.5649 25.3262L68.5958 15.6525L60.6607 9.67376H70.4691L73.5 0Z" fill="#EAD40C"/>
  <path d="M103 0L106.143 9.67376H116.315L108.086 15.6525L111.229 25.3262L103 19.3475L94.771 25.3262L97.9142 15.6525L89.6852 9.67376H99.8568L103 0Z" fill="#EAD40C"/>
  <path d="M133 0L136.143 9.67376H146.315L138.086 15.6525L141.229 25.3262L133 19.3475L124.771 25.3262L127.914 15.6525L119.685 9.67376H129.857L133 0Z" fill="#EAD40C"/>
</svg>