<svg xmlns="http://www.w3.org/2000/svg" width="44" height="44" viewBox="0 0 44 44" fill="none">
  <path d="M21.8807 0C9.90305 0 0.19516 9.70789 0.19516 21.6855C0.19516 33.6631 9.90305 43.371 21.8807 43.371C33.8583 43.371 43.5662 33.6631 43.5662 21.6855C43.5662 9.70789 33.8583 0 21.8807 0ZM21.8807 41.7303C10.8055 41.7303 1.83593 32.7607 1.83593 21.6855C1.83593 10.6103 10.8055 1.64077 21.8807 1.64077C32.9559 1.64077 41.9254 10.6103 41.9254 21.6855C41.9254 32.7607 32.9559 41.7303 21.8807 41.7303ZM34.0497 34.128H26.803L20.1579 24.4748L11.8446 34.128H9.68428L19.2008 23.0802L9.68428 9.24301H16.931L23.2206 18.404L31.0963 9.24301H33.2567L24.2051 19.7713L34.0497 34.128ZM27.8148 32.5966H31.1237L15.9466 10.8838H12.6377L27.8148 32.5966Z" fill="#F4F4ED"/>
</svg>